<svg width="33" height="32" viewBox="0 0 33 32" fill="none" xmlns="http://www.w3.org/2000/svg">
<g clip-path="url(#clip0_5112_22104)">
<path d="M21.6801 24.8C22.1772 24.8 22.5801 24.3971 22.5801 23.9C22.5801 23.4029 22.1772 23 21.6801 23C21.1831 23 20.7801 23.4029 20.7801 23.9C20.7801 24.3971 21.1831 24.8 21.6801 24.8Z" fill="#424242" stroke="#424242" stroke-width="2" stroke-linecap="round" stroke-linejoin="round"/>
<path d="M11.7801 24.8C12.2772 24.8 12.6801 24.3971 12.6801 23.9C12.6801 23.4029 12.2772 23 11.7801 23C11.2831 23 10.8801 23.4029 10.8801 23.9C10.8801 24.3971 11.2831 24.8 11.7801 24.8Z" fill="#424242" stroke="#424242" stroke-width="2" stroke-linecap="round" stroke-linejoin="round"/>
<path d="M4.58012 5.90039H8.18012L10.5921 17.9514C10.6744 18.3657 10.8998 18.738 11.2289 19.0029C11.558 19.2678 11.9697 19.4085 12.3921 19.4004H21.1401C21.5625 19.4085 21.9743 19.2678 22.3033 19.0029C22.6324 18.738 22.8578 18.3657 22.9401 17.9514L24.3801 10.4004H9.08012" stroke="#424242" stroke-width="2" stroke-linecap="round" stroke-linejoin="round"/>
</g>
<defs>
<clipPath id="clip0_5112_22104">
<rect width="21.6" height="21.6" fill="white" transform="translate(3.68011 5)"/>
</clipPath>
</defs>
</svg>
