<svg width="47" height="32" viewBox="0 0 47 32" fill="none" xmlns="http://www.w3.org/2000/svg">
<rect y="0.5" width="47" height="31" rx="15.5" fill="#17BE94"/>
<path d="M15.985 18.1406C19.3952 18.1406 21.5397 19.2129 21.5573 21.0586C21.5397 22.8867 19.3952 23.9766 15.985 23.959C12.61 23.9766 10.4479 22.8867 10.4479 21.0586C10.4479 19.2129 12.61 18.1406 15.985 18.1406ZM15.985 19.4062C13.5944 19.4062 12.1002 20.0215 12.1178 21.0586C12.1002 22.0781 13.5944 22.6758 15.985 22.6758C18.3932 22.6758 19.8873 22.0781 19.9049 21.0586C19.8873 20.0215 18.3932 19.4062 15.985 19.4062ZM21.4342 9.01758V10.3359C21.4342 11.6016 21.4342 12.9023 20.9948 14.5195L19.36 14.3438C19.7819 12.7354 19.7819 11.5752 19.7819 10.3535H10.5709V9.01758H21.4342ZM23.2272 15.4863V16.8398H8.90102V15.4863H14.6491V12.5332H16.2838V15.4863H23.2272ZM29.222 11.1445C29.222 13.1484 30.6107 14.9766 33.0013 15.7324L32.2103 17.0332C30.4173 16.4619 29.1078 15.2754 28.4134 13.7812C27.7279 15.5039 26.348 16.8662 24.4584 17.5254L23.597 16.1895C26.058 15.3809 27.5345 13.3418 27.5521 11.1621V10.7227H24.0892V9.36914H32.6146V10.7227H29.222V11.1445ZM36.0951 8.24414V12.1465H38.3802V13.5176H36.0951V17.7012H34.4252V8.24414H36.0951ZM31.015 18.0879C34.267 18.0879 36.2357 19.1602 36.2357 21.0059C36.2357 22.8691 34.267 23.9766 31.015 23.959C27.7279 23.9766 25.724 22.8691 25.724 21.0059C25.724 19.1602 27.7279 18.0879 31.015 18.0879ZM31.015 19.4062C28.7298 19.4062 27.3763 19.9863 27.3939 21.0059C27.3763 22.0605 28.7298 22.6406 31.015 22.6406C33.2826 22.6406 34.6009 22.0605 34.6009 21.0059C34.6009 19.9863 33.2826 19.4062 31.015 19.4062Z" fill="white"/>
</svg>
