<svg width="70" height="35" viewBox="0 0 70 35" fill="none" xmlns="http://www.w3.org/2000/svg">
<path d="M15.8594 27.3438C22.202 27.3438 27.3438 22.202 27.3438 15.8594C27.3438 9.51673 22.202 4.375 15.8594 4.375C9.51673 4.375 4.375 9.51673 4.375 15.8594C4.375 22.202 9.51673 27.3438 15.8594 27.3438Z" stroke="white" stroke-width="2" stroke-linecap="round" stroke-linejoin="round"/>
<path d="M23.9805 23.9805L30.625 30.625" stroke="white" stroke-width="2" stroke-linecap="round" stroke-linejoin="round"/>
<path d="M50.8594 27.3438C57.202 27.3438 62.3438 22.202 62.3438 15.8594C62.3438 9.51673 57.202 4.375 50.8594 4.375C44.5167 4.375 39.375 9.51673 39.375 15.8594C39.375 22.202 44.5167 27.3438 50.8594 27.3438Z" stroke="#505050" stroke-width="2" stroke-linecap="round" stroke-linejoin="round"/>
<path d="M58.9805 23.9805L65.625 30.625" stroke="#505050" stroke-width="2" stroke-linecap="round" stroke-linejoin="round"/>
</svg>
