<svg width="22" height="22" viewBox="0 0 22 22" fill="none" xmlns="http://www.w3.org/2000/svg">
<g id="Component 1">
<path id="Star 2" d="M10.0676 2.40576C10.3976 1.55427 11.6024 1.55427 11.9324 2.40576L13.5472 6.57211C13.6891 6.93818 14.032 7.18736 14.4241 7.20918L18.8855 7.45745C19.7973 7.50819 20.1696 8.65403 19.4617 9.23102L15.9983 12.0542C15.694 12.3023 15.563 12.7055 15.6634 13.085L16.8059 17.4048C17.0394 18.2877 16.0647 18.9958 15.2972 18.5009L11.5419 16.0794C11.212 15.8667 10.788 15.8667 10.4581 16.0794L6.70278 18.5009C5.93529 18.9958 4.96059 18.2877 5.19409 17.4048L6.33662 13.085C6.43701 12.7055 6.30601 12.3023 6.0017 12.0542L2.53826 9.23102C1.83043 8.65403 2.20273 7.50819 3.11453 7.45745L7.57595 7.20918C7.96795 7.18736 8.31092 6.93818 8.4528 6.57211L10.0676 2.40576Z" fill="#FFBF1B"/>
</g>
</svg>
