<svg width="24" height="24" viewBox="0 0 24 24" fill="none" xmlns="http://www.w3.org/2000/svg">
<circle cx="12" cy="8" r="5" fill="#222222" stroke="#222222" stroke-width="2"/>
<path d="M20.3149 20.5558C20.7672 21.6478 21 22.8181 21 24L3 24C3 22.8181 3.23279 21.6478 3.68508 20.5558C4.13738 19.4639 4.80031 18.4718 5.63604 17.636C6.47177 16.8003 7.46392 16.1374 8.55585 15.6851C9.64778 15.2328 10.8181 15 12 15C13.1819 15 14.3522 15.2328 15.4442 15.6851C16.5361 16.1374 17.5282 16.8003 18.364 17.636C19.1997 18.4718 19.8626 19.4639 20.3149 20.5558Z" fill="#222222"/>
<path d="M21 24C21 22.8181 20.7672 21.6478 20.3149 20.5558C19.8626 19.4639 19.1997 18.4718 18.364 17.636C17.5282 16.8003 16.5361 16.1374 15.4442 15.6851C14.3522 15.2328 13.1819 15 12 15C10.8181 15 9.64778 15.2328 8.55585 15.6851C7.46392 16.1374 6.47177 16.8003 5.63604 17.636C4.80031 18.4718 4.13738 19.4639 3.68508 20.5558C3.23279 21.6478 3 22.8181 3 24" stroke="#222222" stroke-width="2"/>
</svg>
