<svg width="24" height="24" viewBox="0 0 24 24" fill="none" xmlns="http://www.w3.org/2000/svg">
<g clip-path="url(#clip0_5112_21672)">
<path d="M12 4L3 7V8V8.47188V8.5L12 11.5L21 8.5V8.47188V8V7L12 4ZM12 9.91875L5.49375 7.75L12 5.58125L18.5063 7.75L12 9.91875ZM3 9.52812V10.975L3.15937 11.0281L5 11.6406V12.6938L3 12.0281V17L12 20L21 17V12.0281L19 12.6938V11.6406L20.8406 11.0281L21 10.975V9.52812L12.1594 12.475L12 12.5281L11.8406 12.475L3 9.52812ZM6 13.0281V11.9719L9 12.9719V14.025L6 13.025V13.0281ZM10 14.3625V13.3062L12 13.9719L14 13.3062V14.3594L12.1594 14.9719L12 15.025L11.8406 14.9719L10 14.3594V14.3625ZM15 12.975L18 11.975V13.0281L15 14.0281V12.9719V12.975Z" fill="#222222"/>
</g>
<defs>
<clipPath id="clip0_5112_21672">
<rect width="18" height="16" fill="white" transform="translate(3 4)"/>
</clipPath>
</defs>
</svg>
