<svg width="110" height="43" viewBox="0 0 110 43" fill="none" xmlns="http://www.w3.org/2000/svg">
<path d="M75.3311 34V7.69531H86.3696L90.5068 20.6309C90.6393 21.0645 90.7537 21.4679 90.8501 21.8413C90.9465 22.2026 91.0247 22.6242 91.085 23.106H91.1753C91.2476 22.6242 91.3319 22.2026 91.4282 21.8413C91.5246 21.4679 91.639 21.0645 91.7715 20.6309L95.9268 7.69531H107.056V34H98.998V20.4863C98.998 20.0648 99.0041 19.6011 99.0161 19.0952C99.0282 18.5773 99.0522 18.1136 99.0884 17.7041H98.9619C98.9017 18.1257 98.8174 18.5894 98.709 19.0952C98.6126 19.589 98.5042 20.0527 98.3838 20.4863L94.2466 34H87.2549L83.1177 20.4863C82.9972 20.0648 82.8828 19.5951 82.7744 19.0771C82.6781 18.5592 82.5998 18.1016 82.5396 17.7041H82.4131C82.4372 18.1016 82.4552 18.5592 82.4673 19.0771C82.4914 19.5951 82.5034 20.0648 82.5034 20.4863V34H75.3311Z" fill="#252525"/>
<path d="M49.8574 21.6064V20.0889C49.8574 15.6325 50.9595 12.3805 53.1636 10.333C55.3677 8.28548 58.2884 7.26172 61.9258 7.26172C65.3102 7.26172 67.9901 8.06266 69.9653 9.66455C71.9526 11.2544 72.9463 13.5789 72.9463 16.6382V18.1558H65.0693V16.0781C65.0693 15.0182 64.8104 14.2293 64.2925 13.7114C63.7866 13.1935 63.0158 12.9346 61.98 12.9346C60.884 12.9346 60.0228 13.314 59.3965 14.0728C58.7702 14.8195 58.457 16.1383 58.457 18.0293V23.6841C58.457 25.5148 58.7642 26.8337 59.3784 27.6406C59.9927 28.4476 60.884 28.8511 62.0522 28.8511C63.064 28.8511 63.8167 28.556 64.3105 27.9658C64.8044 27.3636 65.0573 26.4482 65.0693 25.2197V23.6299H72.9463V25.4004C72.9342 28.1947 71.9406 30.3988 69.9653 32.0127C68.0021 33.6266 65.3223 34.4336 61.9258 34.4336C58.2402 34.4336 55.3075 33.3918 53.1274 31.3081C50.9474 29.2244 49.8574 25.9906 49.8574 21.6064Z" fill="#252525"/>
<path d="M26.5337 26.6831V25.5269H34.2661V26.1592C34.2661 27.1107 34.5311 27.8213 35.061 28.291C35.603 28.7607 36.3618 28.9956 37.3374 28.9956C38.2407 28.9956 38.9453 28.8089 39.4512 28.4355C39.957 28.0501 40.21 27.5262 40.21 26.8638C40.21 26.1411 39.951 25.5871 39.4331 25.2017C38.9272 24.8162 37.5783 24.3224 35.3862 23.7202C32.6401 22.9494 30.5203 21.9256 29.0269 20.6489C27.5454 19.3602 26.8047 17.5897 26.8047 15.3374C26.8047 12.784 27.7502 10.8027 29.6411 9.39355C31.5441 7.97233 34.0373 7.26172 37.1206 7.26172C40.2039 7.26172 42.6971 7.92415 44.6001 9.24902C46.5151 10.5739 47.4727 12.4287 47.4727 14.8135V15.7891H39.9028V15.3013C39.9028 14.5425 39.674 13.9403 39.2163 13.4946C38.7707 13.049 38.1143 12.8262 37.2471 12.8262C36.3558 12.8262 35.7054 12.9948 35.2959 13.332C34.8864 13.6693 34.6816 14.1149 34.6816 14.6689C34.6816 15.2471 34.9406 15.6867 35.4585 15.9878C35.9764 16.2769 37.3976 16.7345 39.7222 17.3608C42.2996 18.0594 44.3291 19.0651 45.8105 20.3779C47.304 21.6787 48.0508 23.5636 48.0508 26.0327C48.0508 28.7547 47.0632 30.8384 45.0879 32.2837C43.1247 33.729 40.5653 34.4517 37.4097 34.4517C34.2782 34.4517 31.6826 33.8013 29.623 32.5005C27.5635 31.1997 26.5337 29.2606 26.5337 26.6831Z" fill="#252525"/>
<path d="M2.30664 34V7.69531H12.7852C16.3623 7.69531 19.2469 8.76725 21.439 10.9111C23.631 13.055 24.7271 16.0962 24.7271 20.0347V21.5703C24.7271 25.5088 23.625 28.568 21.4209 30.748C19.2168 32.916 16.3382 34 12.7852 34H2.30664ZM10.2739 28.4175H12.1709C13.4717 28.4175 14.5135 27.9417 15.2964 26.9902C16.0793 26.0387 16.4707 24.5212 16.4707 22.4375V19.2939C16.4707 17.1862 16.0793 15.6867 15.2964 14.7954C14.5135 13.9041 13.4717 13.4585 12.1709 13.4585H10.2739V28.4175Z" fill="#252525"/>
</svg>
