<svg width="157" height="32" viewBox="0 0 157 32" fill="none" xmlns="http://www.w3.org/2000/svg">
<path d="M0 9.55556C0 4.27817 4.27817 0 9.55556 0H22.4444C27.7218 0 32 4.27817 32 9.55556V22.4444C32 27.7218 27.7218 32 22.4444 32H9.55556C4.27817 32 0 27.7218 0 22.4444V9.55556Z" fill="white"/>
<path d="M16.6001 17.199L12.4001 5.79902L16.0001 3.99902L20.8001 4.59902L24.4001 8.19902L19.0001 17.199H16.6001Z" fill="#82BB25"/>
<path d="M15.4001 14.799L19.6001 26.199L16.0001 27.999L11.2001 27.399L7.6001 23.799L13.0001 14.799H15.4001Z" fill="#0097D8"/>
<path fill-rule="evenodd" clip-rule="evenodd" d="M2.86334 14.5461C2.81111 15.0234 2.7843 15.5085 2.7843 15.9998C2.7843 16.4911 2.81111 16.9761 2.86334 17.4535C3.20041 20.5341 4.59622 23.2963 6.67913 25.3686C7.16618 25.8532 7.69081 26.3 8.24825 26.7044C10.4258 28.284 13.1041 29.2153 15.9999 29.2153C16.8428 29.2153 17.6673 29.1364 18.4664 28.9856C18.9768 28.8892 19.4768 28.7635 19.9646 28.6103C24.8811 27.0661 28.5595 22.7261 29.1364 17.4535C29.1887 16.9761 29.2155 16.4911 29.2155 15.9998C29.2155 15.5085 29.1887 15.0234 29.1364 14.5461C28.8154 11.6119 27.5338 8.9665 25.6129 6.93103C25.25 6.54646 24.8643 6.18367 24.4579 5.84481C22.166 3.93386 19.2172 2.78418 15.9999 2.78418C14.8984 2.78418 13.8284 2.91893 12.8055 3.17285C12.3172 3.29406 11.8396 3.44242 11.3744 3.61624C6.79156 5.32877 3.4141 9.51247 2.86334 14.5461ZM7.17434 17.4535C6.44497 17.4535 5.87947 18.102 6.07734 18.804C6.26907 19.4842 6.5289 20.136 6.84918 20.7515C7.07355 21.1827 7.68617 21.1219 7.89362 20.6823C8.02544 20.4029 8.1633 20.1311 8.30469 19.8679C8.5736 19.3673 8.86299 18.8839 9.16191 18.424C9.42917 18.0128 9.14199 17.4535 8.65159 17.4535H7.17434ZM14.2382 17.4535C13.8176 17.4535 13.414 17.627 13.1407 17.9467C12.3962 18.8177 11.5492 19.9719 10.8659 21.2438C10.3813 22.146 10.0101 23.0491 9.79525 23.9145C9.75439 24.0791 9.81816 24.2514 9.95543 24.3509C11.6532 25.5825 13.7375 26.3079 15.9999 26.3079C16.3363 26.3079 16.6684 26.2919 16.9956 26.2607C15.9484 23.8183 15.8677 20.7574 15.9855 19.7422C16.0469 19.2127 15.972 18.8126 15.8332 18.4468C15.5921 17.8114 14.9177 17.4535 14.2382 17.4535ZM18.7781 14.2377C18.6135 14.4349 18.3684 14.5461 18.1115 14.5461H17.9179C17.342 14.5461 16.8022 14.2573 16.4863 13.7757C16.0723 13.1443 15.9192 12.3919 15.8628 11.6389C15.7615 10.2847 15.3992 8.80717 14.8195 7.28048C14.5401 6.54478 14.9787 5.71167 15.7655 5.69421C15.8434 5.69248 15.9215 5.69161 15.9999 5.69161C18.012 5.69161 19.8852 6.26575 21.4703 7.26075C21.9207 7.54347 22.0808 8.11205 21.8874 8.60744C21.4241 9.79472 21.0253 10.7078 20.6229 11.4849C20.0862 12.5216 19.5346 13.3319 18.7781 14.2377ZM19.9646 17.4535C20.1479 17.353 23.0804 17.3919 24.8597 17.4252C25.5774 17.4386 26.1235 18.0807 25.9308 18.7722C25.0702 21.8612 22.8069 24.3683 19.8674 25.5587C18.8114 23.3254 18.668 21.4572 18.8788 20.0473C19.0516 18.8916 19.7003 17.5983 19.9646 17.4535ZM26.0873 13.866C26.1623 14.2229 25.8807 14.5461 25.516 14.5461H23.3145C22.8339 14.5461 22.5435 14.0058 22.7844 13.5899C22.9267 13.3442 23.0663 13.0892 23.2048 12.8218C23.4758 12.2984 23.7407 11.7304 24.0126 11.0958C24.2003 10.6579 24.7918 10.5933 25.0228 11.01C25.5112 11.8912 25.8739 12.8511 26.0873 13.866ZM11.9266 7.86853C11.6735 7.24848 10.9373 6.99254 10.3764 7.3584C8.3125 8.70443 6.76223 10.7692 6.07788 13.1952C5.87984 13.8973 6.44531 14.5461 7.17478 14.5461H10.6828C11.7683 14.5461 12.8558 14.0342 12.9593 12.9536C13.084 11.653 12.7501 9.88584 11.9266 7.86853Z" fill="url(#paint0_linear_5293_18772)"/>
<path d="M38.794 25V6.436H46.802C49.3153 6.436 51.3433 7.22467 52.886 8.802C54.446 10.362 55.226 12.6327 55.226 15.614C55.226 16.9833 55.0527 18.24 54.706 19.384C54.3593 20.5107 53.8307 21.4987 53.12 22.348C52.4093 23.1973 51.5253 23.856 50.468 24.324C49.4107 24.7747 48.1887 25 46.802 25H38.794ZM42.876 9.868V21.568H46.516C47.14 21.568 47.7207 21.4727 48.258 21.282C48.8127 21.074 49.3067 20.7533 49.74 20.32C50.1733 19.8693 50.5113 19.2887 50.754 18.578C51.014 17.85 51.144 16.992 51.144 16.004C51.144 14.0107 50.7367 12.494 49.922 11.454C49.1073 10.3967 47.7293 9.868 45.788 9.868H42.876ZM55.0495 25L62.0955 6.436H66.2815L73.2235 25H68.9855L67.5815 20.866H60.6395L59.1835 25H55.0495ZM64.1235 11.012L61.7055 17.824H66.5155L64.1755 11.012H64.1235ZM73.7843 25V6.436H87.6683V9.868H77.8663V13.846H86.8623V17.018H77.8663V21.568H87.8763V25H73.7843ZM94.4137 25V17.772L87.5757 6.436H92.1777L96.5197 13.768L100.836 6.436H105.386L98.4957 17.876V25H94.4137ZM102 25L109.046 6.436H113.232L120.174 25H115.936L114.532 20.866H107.59L106.134 25H102ZM111.074 11.012L108.656 17.824H113.466L111.126 11.012H111.074ZM120.735 25V6.436H124.791L132.539 18.89H132.591V6.436H136.413V25H132.331L124.609 12.572H124.557V25H120.735ZM152.798 25L152.382 22.894C151.706 23.778 150.926 24.428 150.042 24.844C149.158 25.2427 148.239 25.442 147.286 25.442C145.882 25.442 144.608 25.1993 143.464 24.714C142.337 24.2113 141.375 23.5267 140.578 22.66C139.798 21.776 139.2 20.7447 138.784 19.566C138.368 18.3873 138.16 17.1307 138.16 15.796C138.16 14.4267 138.368 13.144 138.784 11.948C139.2 10.752 139.798 9.712 140.578 8.828C141.375 7.92667 142.337 7.23333 143.464 6.748C144.608 6.24533 145.882 5.994 147.286 5.994C148.239 5.994 149.167 6.14133 150.068 6.436C150.969 6.73067 151.775 7.15533 152.486 7.71C153.214 8.26467 153.803 8.958 154.254 9.79C154.722 10.6047 155.008 11.5233 155.112 12.546H151.212C150.987 11.5407 150.519 10.7693 149.808 10.232C149.115 9.69467 148.274 9.426 147.286 9.426C146.402 9.426 145.631 9.59933 144.972 9.946C144.331 10.2927 143.811 10.7607 143.412 11.35C143.013 11.9393 142.719 12.6153 142.528 13.378C142.337 14.1407 142.242 14.9467 142.242 15.796C142.242 16.6107 142.337 17.3907 142.528 18.136C142.719 18.864 143.013 19.5227 143.412 20.112C143.828 20.7013 144.357 21.1693 144.998 21.516C145.639 21.8453 146.402 22.01 147.286 22.01C148.603 22.01 149.635 21.672 150.38 20.996C151.143 20.3027 151.585 19.306 151.706 18.006H147.598V14.964H155.398V25H152.798Z" fill="#45474A"/>
<defs>
<linearGradient id="paint0_linear_5293_18772" x1="15.9999" y1="2.78418" x2="15.9999" y2="29.2153" gradientUnits="userSpaceOnUse">
<stop stop-color="#013973"/>
<stop offset="1" stop-color="#013973"/>
</linearGradient>
</defs>
</svg>
