<svg width="190" height="37" viewBox="0 0 190 37" fill="none" xmlns="http://www.w3.org/2000/svg">
<path d="M28.622 0.499997H35.258V36.368H28.622V20.408H25.64V35.738H19.088V0.667998H25.64V13.688H28.622V0.499997ZM7.034 28.472H9.05C11.864 28.472 15.224 28.052 17.408 27.254V33.386C15.266 34.268 11.444 34.688 8.42 34.688H0.188V1.34H15.854V7.556H7.034V28.472ZM76.1624 8.648H71.9624V11.126H76.1624V17.048H71.9624V20.24H64.8644V0.499997H71.9624V2.726H76.1624V8.648ZM49.4504 19.442C42.5624 19.442 37.9424 15.704 37.9424 9.992C37.9424 4.322 42.5624 0.541999 49.4504 0.541999C56.3384 0.541999 60.9584 4.322 60.9584 9.992C60.9584 15.704 56.3384 19.442 49.4504 19.442ZM49.4504 6.296C46.7204 6.296 44.9984 7.724 44.9984 9.992C44.9984 12.26 46.7204 13.688 49.4504 13.688C52.1804 13.688 53.9024 12.26 53.9024 9.992C53.9024 7.724 52.1804 6.296 49.4504 6.296ZM56.3384 20.744C65.2424 20.744 72.2984 22.802 72.2984 28.766C72.2984 34.73 65.2424 36.788 56.3384 36.788C47.4344 36.788 40.3784 34.73 40.3784 28.766C40.3784 22.802 47.4344 20.744 56.3384 20.744ZM56.3384 31.118C60.9584 31.118 64.6544 30.488 64.6544 28.766C64.6544 27.086 60.9584 26.414 56.3384 26.414C51.7184 26.414 48.0224 27.086 48.0224 28.766C48.0224 30.488 51.7184 31.118 56.3384 31.118ZM98.7548 28.472H113.287V35.108H76.9988V28.472H91.5308V22.676H78.9728V1.34H111.313V22.676H98.7548V28.472ZM86.0288 7.976V16.082H104.257V7.976H86.0288ZM153.603 13.604V20.492H149.403V36.368H142.305V0.499997H149.403V13.604H153.603ZM130.839 11.882V1.34H137.811V34.688H116.937V1.34H123.909V11.882H130.839ZM123.909 28.178H130.839V18.35H123.909V28.178ZM189.132 0.499997V18.056H182.034V0.499997H189.132ZM166.2 0.541999C173.256 0.541999 177.75 4.07 177.75 9.236C177.75 14.444 173.256 17.93 166.2 17.93C159.144 17.93 154.65 14.444 154.65 9.236C154.65 4.07 159.144 0.541999 166.2 0.541999ZM166.2 6.128C163.47 6.128 161.664 7.346 161.664 9.236C161.664 11.126 163.47 12.344 166.2 12.344C168.93 12.344 170.736 11.126 170.736 9.236C170.736 7.346 168.93 6.128 166.2 6.128ZM189.132 19.316V30.026H164.52V31.454H189.51V36.368H157.506V25.658H182.118V24.23H157.422V19.316H189.132Z" fill="#45474A"/>
</svg>
