<svg width="78" height="77" viewBox="0 0 78 77" fill="none" xmlns="http://www.w3.org/2000/svg">
<g id="Frame 317">
<g id="Group 6">
<path id="Rectangle 13" d="M0.5 22.9931C0.5 10.2943 10.7943 0 23.4931 0H54.5069C67.2057 0 77.5 10.2943 77.5 22.9931V54.0069C77.5 66.7057 67.2057 77 54.5069 77H23.4931C10.7943 77 0.5 66.7057 0.5 54.0069V22.9931Z" fill="#133A61"/>
<path id="Ellipse 1 (Stroke)" fill-rule="evenodd" clip-rule="evenodd" d="M12.6585 35.585C12.5538 36.5423 12.5 37.5149 12.5 38.5C12.5 39.4851 12.5538 40.4577 12.6585 41.415C13.3344 47.5922 16.1333 53.1311 20.3099 57.2865C21.2866 58.2581 22.3386 59.1542 23.4564 59.965C27.8227 63.1324 33.1933 65 39 65C40.6903 65 42.3436 64.8417 43.9459 64.5393C44.9693 64.3461 45.9719 64.094 46.95 63.7868C56.8087 60.6904 64.1847 51.9876 65.3415 41.415C65.4462 40.4577 65.5 39.4851 65.5 38.5C65.5 37.5149 65.4462 36.5423 65.3415 35.585C64.6977 29.7014 62.128 24.3968 58.2762 20.3153C57.5484 19.5442 56.7749 18.8167 55.96 18.1372C51.3643 14.3054 45.4514 12 39 12C36.7913 12 34.6458 12.2702 32.5946 12.7794C31.6154 13.0224 30.6578 13.3199 29.725 13.6685C20.5354 17.1024 13.7629 25.4916 12.6585 35.585ZM19.6845 41.415C19.0767 41.415 18.6077 41.9534 18.726 42.5496C19.201 44.9434 20.0894 47.1887 21.3152 49.2083C21.5253 49.5546 22.0359 49.4994 22.193 49.1261C22.6138 48.1263 23.0812 47.1654 23.5695 46.2563C24.3372 44.8273 25.1882 43.468 26.059 42.2152C26.2923 41.8796 26.0548 41.415 25.6461 41.415H19.6845ZM35.4674 41.415C34.624 41.415 33.8147 41.7629 33.2667 42.404C31.7739 44.1506 30.0754 46.465 28.7053 49.0154C27.7335 50.8245 26.9893 52.6353 26.5584 54.3708C26.4765 54.7008 26.6044 55.0462 26.8796 55.2459C30.284 57.7154 34.4635 59.17 39 59.17C39.6745 59.17 40.3404 59.1379 40.9965 59.0752C38.8968 54.1777 38.735 48.04 38.9711 46.0043C39.0942 44.9427 38.9441 44.1403 38.6658 43.4068C38.1824 42.1327 36.8301 41.415 35.4674 41.415ZM44.571 34.9667C44.2408 35.3621 43.7493 35.585 43.2341 35.585H42.8461C41.6912 35.585 40.6087 35.006 39.9754 34.0403C39.1451 32.7741 38.8382 31.2655 38.7251 29.7556C38.4847 26.5425 37.5116 22.9831 35.9506 19.324C35.6932 18.7208 36.0579 18.0266 36.7097 17.9549C37.4607 17.8724 38.2248 17.83 39 17.83C43.4117 17.83 47.4902 19.2064 50.8447 21.5575C51.2076 21.8118 51.3418 22.2826 51.1838 22.6967C50.0893 25.5655 49.1844 27.6811 48.2702 29.4468C47.1938 31.5256 46.0878 33.1504 44.571 34.9667ZM46.95 41.415C47.38 41.1794 55.3514 41.3261 58.3437 41.3898C58.9417 41.4026 59.3944 41.9361 59.2786 42.5229C57.9184 49.4168 53.1298 55.0862 46.7552 57.6677C44.6377 53.1894 44.3501 49.4433 44.7728 46.6161C45.1193 44.2987 46.42 41.7053 46.95 41.415ZM59.3782 35.0164C59.429 35.316 59.1949 35.585 58.891 35.585H52.3456C51.9451 35.585 51.7055 35.1366 51.9197 34.7982C52.4478 33.9639 52.9513 33.0855 53.4473 32.1275C54.1556 30.7595 54.8431 29.2398 55.5684 27.4699C55.7189 27.1026 56.2146 27.0458 56.4285 27.3802C57.887 29.6606 58.9084 32.2445 59.3782 35.0164ZM30.2698 20.8831C30.0412 20.3739 29.4325 20.1626 28.9451 20.4344C23.739 23.3386 19.9236 28.4256 18.7267 34.45C18.6082 35.0462 19.0772 35.585 19.6851 35.585H28.9529C30.7402 35.585 32.5405 34.7663 32.8253 33.0018C32.8566 32.8079 32.8827 32.6048 32.9031 32.3918C33.1798 29.5055 32.33 25.4731 30.2698 20.8831Z" fill="url(#paint0_linear_4065_17717)"/>
</g>
</g>
<defs>
<linearGradient id="paint0_linear_4065_17717" x1="39" y1="12" x2="39" y2="65" gradientUnits="userSpaceOnUse">
<stop stop-color="#2FFF76"/>
<stop offset="1" stop-color="#00B3FF"/>
</linearGradient>
</defs>
</svg>
